<svg version="1.1" id="Layer_1" xmlns="http://www.w3.org/2000/svg" xmlns:xlink="http://www.w3.org/1999/xlink" x="0px" y="0px"
	 viewBox="0 0 340.5 311.4" enable-background="new 0 0 340.5 311.4" xml:space="preserve">
<g>
	<path fill="white" d="M151.3,256.1c-10.6-0.9-20.6-3.5-30.2-7.6c-12.4-5.4-23.3-12.7-32.6-21.8c-9.3-9.1-16.6-19.8-22-31.9
		c-5.4-12.1-8.1-25-8.1-38.5c0-13.8,2.7-26.7,8.1-38.9c5.4-12.1,12.7-22.8,22-31.9c9.3-9.1,20.1-16.4,32.6-21.8
		c9.6-4.2,19.7-6.7,30.2-7.7V0.6c-18.8,1-36.6,4.9-53.4,11.7c-19.6,8-36.6,19.1-51.1,33.2C32.3,59.7,20.9,76.2,12.5,95.1
		C4.2,113.9,0,134.3,0,156s4.2,42.1,12.5,60.9c8.4,18.9,19.8,35.3,34.3,49.3c14.5,14,31.5,25.1,51.1,33.2
		c16.8,7,34.6,10.9,53.4,11.9V256.1z"/>
	<path fill="white" d="M338.1,200.4c-1.6-7.1-3.9-13.9-7-20.2c-3.1-6.3-6.8-12.1-11.2-17.3c-4.4-5.2-9.3-9.5-14.8-12.8c0.6-0.7,1.2-1.4,1.8-2.1
		H158.7v163l103,0.4c10.4,0,20.4-2.2,29.8-6.6c9.5-4.4,17.8-10.6,25-18.5c7.2-7.9,13-17.4,17.4-28.4c4.4-11,6.5-23,6.5-36
		C340.5,214.7,339.7,207.5,338.1,200.4z M285.3,238c-2.6,5.3-5.9,9.8-10,13.3c-4.1,3.5-8.9,6.1-14.2,7.6c-5.3,1.6-10.6,2.3-15.9,2.3
		h-37v-86.3c7.2,0,14.3-0.1,21.4-0.2c7-0.1,14.1-0.1,21.4,0.2c5.3,0,10.3,1,14.8,3.1c4.6,2.1,8.6,5,12.1,8.8
		c3.5,3.8,6.3,8.4,8.3,13.9c2,5.5,3,11.5,3,18C289.2,226.2,287.9,232.7,285.3,238z"/>
	<path fill="white" d="M340.5,89.4c0-13-2.2-24.9-6.5-36c-4.4-11-10.2-20.5-17.4-28.4c-7.2-7.9-15.6-14.1-25-18.5C282.1,2.2,272.2,0,261.7,0
		l-103,0.4v163h148.2c-0.6-0.7-1.2-1.4-1.8-2.1c5.5-3.4,10.5-7.6,14.8-12.8c4.4-5.2,8.1-11,11.2-17.3c3.1-6.4,5.4-13.1,7-20.2
		C339.7,103.9,340.5,96.7,340.5,89.4z M289.2,92.7c0,6.5-1,12.5-3,18c-2,5.5-4.8,10.1-8.3,13.9c-3.5,3.8-7.5,6.7-12.1,8.8
		c-4.6,2.1-9.5,3.1-14.8,3.1c-7.2,0.3-14.3,0.3-21.4,0.2c-7-0.1-14.1-0.2-21.4-0.2V50.2h37c5.3,0,10.6,0.8,15.9,2.3
		c5.3,1.6,10,4.1,14.2,7.6c4.1,3.5,7.5,7.9,10,13.3C287.9,78.7,289.2,85.2,289.2,92.7z"/>
</g>
</svg>
